<svg width="148" height="132" viewBox="0 0 148 132" fill="none" xmlns="http://www.w3.org/2000/svg">
<path d="M136.667 19.6667H78.6667C78.6667 19.6667 66.3333 2.5 61.5 2.5H31.5C26.5 2.5 22.5 6.5 22.5 11.5V104.667C22.5 109.667 26.5 113.667 31.5 113.667H136.667C141.667 113.667 145.667 109.667 145.667 104.667V28.6667C145.5 23.6667 141.667 19.6667 136.667 19.6667Z" fill="white" stroke="#EFEFEF" stroke-width="5"/>
<path d="M76.1152 62.25H62.9485V88.5833H76.1152V62.25Z" fill="#EAFAFF"/>
<path d="M94.2819 44.75H81.1152V88.75H94.2819V44.75Z" fill="#EFF7FF"/>
<path d="M112.448 53.25H99.2817V88.5833H112.448V53.25Z" fill="#F2F5FF"/>
<path d="M46.6667 106.504H3C3 106.504 3 121.004 3 121.171C3 125.671 12.8333 129.171 24.8333 129.171C36.8333 129.171 46.6667 125.504 46.6667 121.171C46.6667 121.004 46.6667 121.004 46.6667 120.837V106.504Z" fill="white" stroke="#EFEFEF" stroke-width="5"/>
<path d="M46.6667 106.504C46.6667 111.004 36.8333 114.504 24.8333 114.504C12.8333 114.504 3 110.837 3 106.504C3 102.004 12.8333 98.5039 24.8333 98.5039C37 98.5039 46.6667 102.171 46.6667 106.504Z" fill="white" stroke="#EFEFEF" stroke-width="5"/>
<path d="M46.6667 92.168H3C3 92.168 3 106.668 3 106.835C3 111.335 12.8333 114.835 24.8333 114.835C36.8333 114.835 46.6667 111.168 46.6667 106.835C46.6667 106.668 46.6667 106.668 46.6667 106.501V92.168Z" fill="white" stroke="#EFEFEF" stroke-width="5"/>
<path d="M46.6667 92.3336C46.6667 96.8336 36.8333 100.334 24.8333 100.334C12.8333 100.334 3 96.6669 3 92.3336C3 87.8336 12.8333 84.3336 24.8333 84.3336C37 84.1669 46.6667 87.8336 46.6667 92.3336Z" fill="white" stroke="#EFEFEF" stroke-width="5"/>
<path d="M46.6667 77.8359H3C3 77.8359 3 92.3359 3 92.5026C3 97.0026 12.8333 100.503 24.8333 100.503C36.8333 100.503 46.6667 96.8359 46.6667 92.5026C46.6667 92.3359 46.6667 92.3359 46.6667 92.1693V77.8359Z" fill="white" stroke="#EFEFEF" stroke-width="5"/>
<path d="M46.6667 78.0016C46.6667 82.5016 36.8333 86.0016 24.8333 86.0016C12.8333 86.0016 3 82.3349 3 78.0016C3 73.5016 12.8333 70.0016 24.8333 70.0016C37 69.8349 46.6667 73.5016 46.6667 78.0016Z" fill="white" stroke="#EFEFEF" stroke-width="5"/>
</svg>
