<svg width="18" height="18" viewBox="0 0 18 18" fill="none" xmlns="http://www.w3.org/2000/svg">
<path d="M16.875 8.99943V8.97199C16.8201 7.21589 13.3354 5.78906 9 5.78906C4.66463 5.78906 1.17988 7.21589 1.125 8.97199C1.125 8.97199 1.125 14.8165 1.125 14.8439C1.125 16.6275 4.66463 18.0817 9 18.0817C13.3628 18.0817 16.875 16.6275 16.875 14.8439C16.875 14.8165 16.875 14.7616 16.875 14.7342V8.99943Z" fill="url(#paint0_linear_165_564)"/>
<path d="M1.125 8.97266C1.125 8.97266 1.125 14.8172 1.125 14.8446C1.125 16.6281 4.66463 18.0824 9 18.0824C13.3628 18.0824 16.875 16.6281 16.875 14.8446C16.875 14.8172 16.875 14.7623 16.875 14.7349V8.97266" fill="url(#paint1_linear_165_564)"/>
<path d="M1.125 8.97266C1.125 8.97266 1.125 14.8172 1.125 14.8446C1.125 16.6281 4.66463 18.0824 9 18.0824C13.3628 18.0824 16.875 16.6281 16.875 14.8446C16.875 14.8172 16.875 14.7623 16.875 14.7349V8.97266" stroke="white" stroke-linecap="round" stroke-linejoin="round"/>
<path d="M16.875 8.99952C16.875 10.7831 13.3354 12.2373 9 12.2373C4.6372 12.2373 1.125 10.7831 1.125 8.99952C1.125 7.21599 4.66463 5.76172 9 5.76172C13.3628 5.78916 16.875 7.21599 16.875 8.99952Z" fill="url(#paint2_linear_165_564)" stroke="white" stroke-linecap="round" stroke-linejoin="round"/>
<path d="M7.90234 15.2031H10.1249" stroke="white" stroke-linecap="round" stroke-linejoin="round"/>
<g opacity="0.5">
<path opacity="0.5" d="M16.875 3.15568V3.12824C16.8201 1.37214 13.3354 -0.0546875 9 -0.0546875C4.66463 -0.0546875 1.17988 1.37214 1.125 3.12824C1.125 3.12824 1.125 8.97275 1.125 9.00019C1.125 10.7837 4.66463 12.238 9 12.238C13.3628 12.238 16.875 10.7837 16.875 9.00019C16.875 8.97275 16.875 8.91787 16.875 8.89044V3.15568Z" fill="url(#paint3_linear_165_564)"/>
<path d="M1.125 3.12891C1.125 3.12891 1.125 8.97342 1.125 9.00086C1.125 10.7844 4.66463 12.2387 9 12.2387C13.3628 12.2387 16.875 10.7844 16.875 9.00086C16.875 8.97342 16.875 8.91854 16.875 8.8911V3.12891" fill="url(#paint4_linear_165_564)"/>
<path d="M1.125 3.12891C1.125 3.12891 1.125 8.97342 1.125 9.00086C1.125 10.7844 4.66463 12.2387 9 12.2387C13.3628 12.2387 16.875 10.7844 16.875 9.00086C16.875 8.97342 16.875 8.91854 16.875 8.8911V3.12891" stroke="white" stroke-linecap="round" stroke-linejoin="round"/>
<path d="M16.875 3.15577C16.875 4.93931 13.3354 6.39358 9 6.39358C4.6372 6.39358 1.125 4.93931 1.125 3.15577C1.125 1.37224 4.66463 -0.0820312 9 -0.0820312C13.3628 -0.0820312 16.875 1.37224 16.875 3.15577Z" fill="url(#paint5_linear_165_564)" stroke="white" stroke-linecap="round" stroke-linejoin="round"/>
<path d="M7.90234 9.4375H10.1249" stroke="white" stroke-linecap="round" stroke-linejoin="round"/>
</g>
<defs>
<linearGradient id="paint0_linear_165_564" x1="9" y1="5.78906" x2="9" y2="18.0817" gradientUnits="userSpaceOnUse">
<stop stop-color="#FFC5B8"/>
<stop offset="1" stop-color="#FA7B45"/>
</linearGradient>
<linearGradient id="paint1_linear_165_564" x1="9" y1="8.97266" x2="9" y2="18.0824" gradientUnits="userSpaceOnUse">
<stop stop-color="#FFC5B8"/>
<stop offset="1" stop-color="#FA7B45"/>
</linearGradient>
<linearGradient id="paint2_linear_165_564" x1="9" y1="5.76172" x2="9" y2="12.2373" gradientUnits="userSpaceOnUse">
<stop stop-color="#FFC5B8"/>
<stop offset="1" stop-color="#FA7B45"/>
</linearGradient>
<linearGradient id="paint3_linear_165_564" x1="9" y1="-0.0546875" x2="9" y2="12.238" gradientUnits="userSpaceOnUse">
<stop stop-color="#FA9359"/>
<stop offset="1" stop-color="#FCB87A"/>
</linearGradient>
<linearGradient id="paint4_linear_165_564" x1="9" y1="3.12891" x2="9" y2="12.2387" gradientUnits="userSpaceOnUse">
<stop stop-color="#FA9359"/>
<stop offset="1" stop-color="#FCB87A"/>
</linearGradient>
<linearGradient id="paint5_linear_165_564" x1="9" y1="-0.0820313" x2="9" y2="6.39358" gradientUnits="userSpaceOnUse">
<stop stop-color="#FA9359"/>
<stop offset="1" stop-color="#FCB87A"/>
</linearGradient>
</defs>
</svg>
