<svg width="8" height="13" viewBox="0 0 8 13" fill="none" xmlns="http://www.w3.org/2000/svg">
<path fill-rule="evenodd" clip-rule="evenodd" d="M1.49919 12.5079C1.30154 12.5078 1.10835 12.4485 0.944041 12.3377C0.77974 12.2268 0.651696 12.0694 0.576077 11.8852C0.500457 11.701 0.480653 11.4984 0.519168 11.3028C0.557685 11.1073 0.652801 10.9277 0.792477 10.7866L2.93927 8.62153L5.08606 6.45645L0.790033 2.12458C0.604891 1.93503 0.50153 1.67937 0.502446 1.41329C0.503362 1.14724 0.608474 0.892297 0.79493 0.70403C0.981381 0.515768 1.23404 0.409451 1.49785 0.408214C1.76167 0.406977 2.01529 0.510921 2.20347 0.697423L2.20657 0.700502L7.20669 5.74326C7.29958 5.83689 7.37347 5.94826 7.42377 6.07061C7.47409 6.19303 7.5 6.32427 7.5 6.45683C7.5 6.58939 7.47409 6.72064 7.42377 6.84307C7.37346 6.96545 7.29976 7.0766 7.20689 7.17021L2.20656 12.2132C2.01892 12.4017 1.7641 12.5082 1.49919 12.5079Z" fill="#CCCCCC"/>
</svg>
