<svg width="14" height="8" viewBox="0 0 14 8" fill="none" xmlns="http://www.w3.org/2000/svg">
<path d="M7.60805 0.751813L12.8887 6.03243C13.0499 6.19366 13.1405 6.41232 13.1405 6.64032C13.1405 6.86832 13.0499 7.08698 12.8887 7.24821C12.7275 7.40943 12.5088 7.5 12.2808 7.5C12.0528 7.5 11.8341 7.40943 11.6729 7.24821L6.99402 2.57547L2.32743 7.24821C2.16621 7.40943 1.94754 7.5 1.71954 7.5C1.49154 7.5 1.27288 7.40943 1.11166 7.24821C0.950436 7.08698 0.859863 6.86832 0.859863 6.64032C0.859863 6.41232 0.950436 6.19366 1.11166 6.03243L6.39228 0.751813C6.47211 0.671979 6.56687 0.60865 6.67118 0.565444C6.77548 0.522237 6.88727 0.5 7.00017 0.5C7.11306 0.5 7.22485 0.522237 7.32915 0.565444C7.43346 0.60865 7.52822 0.671979 7.60805 0.751813Z" fill="black"/>
</svg>
