<svg width="8" height="14" viewBox="0 0 8 14" fill="none" xmlns="http://www.w3.org/2000/svg">
<path fill-rule="evenodd" clip-rule="evenodd" d="M6.85807 13.8732C7.08396 13.873 7.30474 13.8053 7.49252 13.6786C7.6803 13.5519 7.82663 13.372 7.91306 13.1615C7.99948 12.951 8.02211 12.7194 7.97809 12.4959C7.93407 12.2725 7.82537 12.0672 7.66574 11.906L5.21227 9.43158L2.75879 6.9572L7.66853 2.0065C7.88012 1.78987 7.99825 1.49768 7.9972 1.19359C7.99616 0.889531 7.87603 0.598172 7.66294 0.383009C7.44985 0.167853 7.1611 0.0463484 6.8596 0.0449344C6.55809 0.0435202 6.26824 0.162314 6.05318 0.375459L6.04963 0.378978L0.335211 6.14213C0.229048 6.24914 0.1446 6.37641 0.0871253 6.51624C0.0296159 6.65615 0 6.80614 0 6.95764C0 7.10913 0.0296121 7.25913 0.0871253 7.39906C0.144614 7.53892 0.228847 7.66595 0.334986 7.77293L6.04964 13.5363C6.26409 13.7518 6.55532 13.8734 6.85807 13.8732Z" fill="#AAAAAA"/>
</svg>
