<svg width="32" height="32" viewBox="0 0 32 32" fill="none" xmlns="http://www.w3.org/2000/svg">
<path d="M26 11.2407V27.9019C26 28.4969 25.5 29.092 24.75 29.092H7.25C6.625 29.092 6 28.4969 6 27.9019V4.10024C6 3.5052 6.625 2.91016 7.25 2.91016H17.25" stroke="#333333" stroke-width="1.5" stroke-miterlimit="10" stroke-linecap="round" stroke-linejoin="round"/>
<path d="M26 11.2407H17.25V2.91016L26 11.2407Z" stroke="#333333" stroke-width="1.5" stroke-miterlimit="10" stroke-linecap="round" stroke-linejoin="round"/>
<path d="M19.1721 18.3087C19.1721 16.0614 17.3333 14.2227 15.086 14.2227C12.8387 14.2227 11 16.0614 11 18.3087C11 20.556 12.8387 22.3947 15.086 22.3947C17.3333 22.3947 19.1721 20.556 19.1721 18.3087Z" stroke="#333333" stroke-width="1.5" stroke-miterlimit="10" stroke-linecap="round" stroke-linejoin="round"/>
<path d="M17.9971 21.2246L21.2855 24.513" stroke="#333333" stroke-width="1.5" stroke-miterlimit="10" stroke-linecap="round" stroke-linejoin="round"/>
</svg>
