<svg width="14" height="15" viewBox="0 0 14 15" fill="none" xmlns="http://www.w3.org/2000/svg">
<g clip-path="url(#clip0_516_804)">
<path fill-rule="evenodd" clip-rule="evenodd" d="M11.9158 2.59714C9.19894 -0.119731 4.79681 -0.124106 2.08519 2.58752C-0.628186 5.30177 -0.625561 9.70214 2.09306 12.419C4.80994 15.1359 9.21294 15.1394 11.9237 12.4278C14.6362 9.71614 14.6336 5.31402 11.9158 2.59714ZM8.41319 10.4319L6.93619 8.95489L5.45919 10.4319C4.85631 11.0348 4.40306 11.5598 3.68381 10.8414C2.96631 10.123 3.48869 9.66977 4.09419 9.06602L5.57119 7.58989L4.09419 6.11289C3.49044 5.51002 2.96631 5.05677 3.68381 4.33752C4.40306 3.62002 4.85631 4.14414 5.45919 4.74789L6.93619 6.22314L8.41319 4.74789C9.01694 4.14502 9.46756 3.61914 10.1868 4.33752C10.9061 5.05677 10.3819 5.51002 9.77819 6.11289L8.30119 7.58902L9.77819 9.06514C10.3811 9.66977 10.9061 10.123 10.1868 10.8414C9.46931 11.5598 9.01694 11.0348 8.41319 10.4319Z" fill="#C61349"/>
</g>
<defs>
<clipPath id="clip0_516_804">
<rect width="14" height="14" fill="white" transform="translate(0 0.5)"/>
</clipPath>
</defs>
</svg>
