<svg width="16" height="17" viewBox="0 0 16 17" fill="none" xmlns="http://www.w3.org/2000/svg">
<path fill-rule="evenodd" clip-rule="evenodd" d="M12.9937 3.60342C10.2581 0.867785 5.82555 0.86338 3.0952 3.59373C0.363087 6.32673 0.36573 10.7575 3.10313 13.4931C5.83877 16.2288 10.2722 16.2323 13.0017 13.5019C15.7329 10.7716 15.7302 6.33906 12.9937 3.60342V3.60342ZM9.46691 11.4923L7.9797 10.0051L6.4925 11.4923C5.88547 12.0993 5.42908 12.628 4.70487 11.9046C3.98241 11.1813 4.50839 10.7249 5.11808 10.117L6.60528 8.63066L5.11808 7.14346C4.51016 6.53642 3.98241 6.08004 4.70487 5.35582C5.42908 4.63336 5.88547 5.16111 6.4925 5.76903L7.9797 7.25447L9.46691 5.76903C10.0748 5.16199 10.5286 4.63248 11.2528 5.35582C11.977 6.08004 11.4493 6.53642 10.8413 7.14346L9.35413 8.62978L10.8413 10.1161C11.4484 10.7249 11.977 11.1813 11.2528 11.9046C10.5303 12.628 10.0748 12.0993 9.46691 11.4923V11.4923Z" fill="#C61349"/>
</svg>
