<svg width="16" height="17" viewBox="0 0 16 17" fill="none" xmlns="http://www.w3.org/2000/svg">
<path d="M8 1.5C6.61553 1.5 5.26216 1.91054 4.11101 2.67971C2.95987 3.44888 2.06266 4.54213 1.53285 5.82122C1.00303 7.1003 0.86441 8.50776 1.13451 9.86563C1.4046 11.2235 2.07129 12.4708 3.05026 13.4497C4.02922 14.4287 5.2765 15.0954 6.63437 15.3655C7.99224 15.6356 9.3997 15.497 10.6788 14.9672C11.9579 14.4373 13.0511 13.5401 13.8203 12.389C14.5895 11.2378 15 9.88447 15 8.5C15 6.64348 14.2625 4.86301 12.9498 3.55025C11.637 2.2375 9.85652 1.5 8 1.5ZM12.5719 6.15063L6.82313 11.895L3.42813 8.5C3.3121 8.38397 3.24691 8.22659 3.24691 8.0625C3.24691 7.89841 3.3121 7.74103 3.42813 7.625C3.54416 7.50897 3.70153 7.44378 3.86563 7.44378C4.02972 7.44378 4.1871 7.50897 4.30313 7.625L6.83188 10.1538L11.7056 5.28437C11.7631 5.22692 11.8313 5.18135 11.9064 5.15025C11.9814 5.11916 12.0619 5.10316 12.1431 5.10316C12.2244 5.10316 12.3048 5.11916 12.3799 5.15025C12.455 5.18135 12.5232 5.22692 12.5806 5.28437C12.6381 5.34183 12.6837 5.41004 12.7148 5.4851C12.7458 5.56017 12.7618 5.64062 12.7618 5.72187C12.7618 5.80313 12.7458 5.88358 12.7148 5.95865C12.6837 6.03371 12.6381 6.10192 12.5806 6.15937L12.5719 6.15063Z" fill="#00B998"/>
</svg>
