<svg width="41" height="40" viewBox="0 0 41 40" fill="none" xmlns="http://www.w3.org/2000/svg">
<path d="M24.4046 31.5576L26.8316 36.5576H14.9749L17.3621 31.5576" fill="#D6D6D6"/>
<path d="M24.4046 31.5576L26.8316 36.5576H14.9749L17.3621 31.5576" stroke="#B7B7B7" stroke-width="1.5"/>
<path d="M31.3287 12.4355H9.67127C7.93094 12.4355 6.5 13.7713 6.5 15.3958V27.5619V29.4753C6.5 31.0998 7.93094 32.4355 9.67127 32.4355H31.3287C33.0691 32.4355 34.5 31.0998 34.5 29.4753V27.5619V15.3597C34.5 13.7352 33.0691 12.4355 31.3287 12.4355Z" fill="white" stroke="#B7B7B7" stroke-width="1.5"/>
<path d="M29.9032 12.4434C29.9032 17.4141 25.8739 21.4434 20.9032 21.4434C15.9325 21.4434 11.9032 17.4141 11.9032 12.4434C11.9032 7.47265 15.9325 3.44336 20.9032 3.44336C25.8739 3.44336 29.9032 7.47265 29.9032 12.4434Z" fill="#0359D6"/>
<path d="M23.0872 10.523C23.0872 9.31795 22.1081 8.33887 20.9031 8.33887C19.6981 8.33887 18.719 9.31795 18.719 10.523C18.719 11.3891 19.2085 12.1422 19.9617 12.4811L19.3592 16.5481H22.5223L21.8445 12.4811C22.5977 12.1422 23.0872 11.3891 23.0872 10.523Z" fill="white"/>
<path d="M14.6565 26.0723V28.181" stroke="#0359D6" stroke-width="1.5"/>
<path d="M18.8342 26.0723V28.181" stroke="#0359D6" stroke-width="1.5"/>
<path d="M23.012 26.0723V28.181" stroke="#0359D6" stroke-width="1.5"/>
<path d="M27.1499 26.0723V28.181" stroke="#0359D6" stroke-width="1.5"/>
</svg>
