<svg width="41" height="40" viewBox="0 0 41 40" fill="none" xmlns="http://www.w3.org/2000/svg">
<path d="M13.7526 28.3832V27.9719H27.334V5.6582H4.07227V28.3832C4.07227 30.8168 5.62545 32.9076 7.86493 33.7988H9.95993C12.1633 32.9076 13.7526 30.8168 13.7526 28.3832Z" fill="white" stroke="#B7B7B7" stroke-width="1.5"/>
<path d="M13.7526 27.6582V28.0917C13.7526 30.6562 12.1994 32.8596 9.95996 33.7987H27.7674C30.0069 32.8596 31.5601 30.6562 31.5601 28.0917V27.6582H13.7526Z" fill="#D6D6D6" stroke="#B7B7B7" stroke-width="1.5"/>
<path d="M16.4219 15.0742C16.4219 16.6635 15.1215 17.9638 13.5322 17.9638C11.9429 17.9638 10.6426 16.6635 10.6426 15.0742V12.0039C10.6426 10.4146 11.9429 9.11426 13.5322 9.11426C15.1215 9.11426 16.4219 10.4146 16.4219 12.0039V15.0742Z" fill="white" stroke="#0359D6" stroke-width="1.5"/>
<path d="M17.3611 20.9253C17.3611 21.1782 17.1443 21.3949 16.8915 21.3949H10.1731C9.92021 21.3949 9.70349 21.1782 9.70349 20.9253V14.2069C9.70349 13.954 9.92021 13.7373 10.1731 13.7373H16.8915C17.1443 13.7373 17.3611 13.954 17.3611 14.2069V20.9253Z" fill="white" stroke="#0359D6" stroke-width="1.5"/>
<path d="M13.5323 15.9043V18.4327" stroke="#0359D6" stroke-width="1.5"/>
<path d="M26.8559 24.2691C26.2757 24.8492 26.2757 25.8161 26.8559 26.4285L30.0466 29.587L34.3331 33.9057C34.9132 34.4859 35.8801 34.4859 36.4925 33.9057C37.0726 33.3256 37.0726 32.3587 36.4925 31.7463L32.1737 27.4276L28.983 24.2691C28.4029 23.689 27.436 23.689 26.8559 24.2691Z" fill="white" stroke="#B7B7B7" stroke-width="1.5"/>
<path d="M29.434 17.2748C32.0768 19.9176 32.0768 24.2042 29.434 26.8792C26.7912 29.522 22.5047 29.522 19.8296 26.8792C17.1868 24.2364 17.1868 19.9499 19.8296 17.2748C22.5047 14.632 26.7912 14.632 29.434 17.2748Z" fill="white" stroke="#B7B7B7" stroke-width="1.5"/>
<path d="M29.2407 22.0777C29.2407 19.5323 27.1773 17.4689 24.6319 17.4689C22.0865 17.4689 20.0231 19.5323 20.0231 22.0777C20.0231 24.6231 22.0865 26.6865 24.6319 26.6865C27.1773 26.6865 29.2407 24.6231 29.2407 22.0777Z" fill="#0359D6"/>
<path d="M22.15 21.7881C22.15 21.2402 22.3756 20.6601 22.7946 20.2411C23.2136 19.8221 23.7937 19.5965 24.3416 19.5965" stroke="white" stroke-width="1.5" stroke-linecap="round" stroke-linejoin="round"/>
</svg>
