<svg width="20" height="21" viewBox="0 0 20 21" fill="none" xmlns="http://www.w3.org/2000/svg">
<path d="M16.648 6.65778C16.648 6.27637 16.648 5.81867 16.648 5.43725C16.648 5.13212 16.4192 4.90327 16.1141 4.90327C13.7493 4.90327 11.9185 4.21672 10.3928 2.76734C10.164 2.53849 9.85883 2.53849 9.62998 2.76734C8.10432 4.21672 6.3498 4.90327 3.90874 4.90327C3.60361 4.90327 3.37476 5.13212 3.37476 5.43725C3.37476 5.81867 3.37476 6.20009 3.37476 6.65778C3.22219 10.6245 3.14591 16.1169 9.78255 18.4054H9.93511H10.0877C16.8769 16.1169 16.7243 10.6245 16.648 6.65778Z" stroke="#FD4F23" stroke-width="1.5" stroke-miterlimit="10"/>
<path d="M7.5 9.89287L9.58333 11.7447L12.5 8.04102" stroke="#333333" stroke-width="1.5" stroke-miterlimit="10" stroke-linecap="round" stroke-linejoin="round"/>
</svg>
