<svg width="125" height="119" viewBox="0 0 125 119" fill="none" xmlns="http://www.w3.org/2000/svg">
<g clip-path="url(#clip0_514_613)">
<path d="M124.508 59.205C124.508 91.3667 98.4445 117.529 66.2827 117.529C34.0226 117.529 7.95886 91.4651 7.95886 59.205C7.95886 27.0433 34.0226 0.979492 66.2827 0.979492C98.4445 0.979492 124.508 27.0433 124.508 59.205Z" fill="url(#paint0_linear_514_613)" fill-opacity="0.6"/>
<mask id="mask0_514_613" style="mask-type:luminance" maskUnits="userSpaceOnUse" x="7" y="0" width="118" height="118">
<path d="M124.508 59.205C124.508 91.3667 98.4445 117.529 66.2827 117.529C34.0226 117.529 7.95886 91.4651 7.95886 59.205C7.95886 27.0433 34.0226 0.979492 66.2827 0.979492C98.4445 0.979492 124.508 27.0433 124.508 59.205Z" fill="white"/>
</mask>
<g mask="url(#mask0_514_613)">
<path opacity="0.5" d="M101.493 32.3535H35.8914V132.379H101.493V32.3535Z" fill="white"/>
<path d="M96.5757 26.6494H30.9737V126.675H96.5757V26.6494Z" fill="white"/>
<path d="M96.5757 26.6494H30.9737V37.7634H96.5757V26.6494Z" fill="url(#paint1_linear_514_613)"/>
<path d="M39.7272 32.2557C39.7272 33.2393 38.9404 34.0261 37.9568 34.0261C36.9733 34.0261 36.1865 33.2393 36.1865 32.2557C36.1865 31.2722 36.9733 30.4854 37.9568 30.4854C38.9404 30.4854 39.7272 31.2722 39.7272 32.2557Z" fill="white"/>
<path d="M47.4972 32.2557C47.4972 33.2393 46.7103 34.0261 45.7268 34.0261C44.7433 34.0261 43.9564 33.2393 43.9564 32.2557C43.9564 31.2722 44.7433 30.4854 45.7268 30.4854C46.7103 30.4854 47.4972 31.2722 47.4972 32.2557Z" fill="white"/>
<path d="M55.1688 32.2557C55.1688 33.2393 54.382 34.0261 53.3984 34.0261C52.4149 34.0261 51.6281 33.2393 51.6281 32.2557C51.6281 31.2722 52.4149 30.4854 53.3984 30.4854C54.382 30.4854 55.1688 31.2722 55.1688 32.2557Z" fill="white"/>
</g>
<mask id="mask1_514_613" style="mask-type:luminance" maskUnits="userSpaceOnUse" x="7" y="0" width="118" height="118">
<path d="M124.508 59.205C124.508 91.3667 98.4445 117.529 66.2827 117.529C34.0226 117.529 7.95886 91.4651 7.95886 59.205C7.95886 27.0433 34.0226 0.979492 66.2827 0.979492C98.4445 0.979492 124.508 27.0433 124.508 59.205Z" fill="white"/>
</mask>
<g mask="url(#mask1_514_613)">
<path d="M90.3794 84.7764H41.9893V98.1525H90.3794V84.7764Z" fill="#CDF7F6"/>
<path d="M51.1362 91.4639C51.1362 92.6441 50.1527 93.5293 49.0708 93.5293C47.8906 93.5293 47.0054 92.5458 47.0054 91.4639C47.0054 90.2836 47.8906 89.3984 49.0708 89.3984C50.1527 89.3984 51.1362 90.2836 51.1362 91.4639Z" fill="#528AE4"/>
<path d="M62.5453 91.4639C62.5453 92.6441 61.5618 93.5293 60.4799 93.5293C59.2996 93.5293 58.4144 92.5458 58.4144 91.4639C58.4144 90.2836 59.398 89.3984 60.4799 89.3984C61.6601 89.3984 62.5453 90.2836 62.5453 91.4639Z" fill="#528AE4"/>
<path d="M74.0527 91.4639C74.0527 92.6441 73.0691 93.5293 71.9872 93.5293C70.807 93.5293 69.9218 92.5458 69.9218 91.4639C69.9218 90.2836 70.9054 89.3984 71.9872 89.3984C73.1675 89.3984 74.0527 90.2836 74.0527 91.4639Z" fill="#528AE4"/>
<path d="M85.5601 91.4639C85.5601 92.6441 84.5766 93.5293 83.4947 93.5293C82.3145 93.5293 81.4293 92.5458 81.4293 91.4639C81.4293 90.2836 82.4128 89.3984 83.4947 89.3984C84.5766 89.3984 85.5601 90.2836 85.5601 91.4639Z" fill="#528AE4"/>
<path d="M70.6103 57.9259C70.6103 60.3848 68.6432 62.3519 66.1843 62.3519C63.7255 62.3519 61.7584 60.3848 61.7584 57.9259C61.7584 55.4671 63.7255 53.5 66.1843 53.5C68.6432 53.5 70.6103 55.4671 70.6103 57.9259Z" fill="url(#paint2_linear_514_613)"/>
<path d="M74.8395 70.7126C74.8395 74.5484 71.6922 77.6957 67.8564 77.6957H64.5124C60.6766 77.6957 57.5292 74.5484 57.5292 70.7126C57.5292 66.8768 60.6766 63.7295 64.5124 63.7295H67.9547C71.7905 63.8278 74.8395 66.8768 74.8395 70.7126Z" fill="url(#paint3_linear_514_613)"/>
</g>
<mask id="mask2_514_613" style="mask-type:luminance" maskUnits="userSpaceOnUse" x="7" y="0" width="118" height="118">
<path d="M124.508 59.205C124.508 91.3667 98.4445 117.529 66.2827 117.529C34.0226 117.529 7.95886 91.4651 7.95886 59.205C7.95886 27.0433 34.0226 0.979492 66.2827 0.979492C98.4445 0.979492 124.508 27.0433 124.508 59.205Z" fill="white"/>
</mask>
<g mask="url(#mask2_514_613)">
<path d="M112.411 50.845L96.5757 44.0586L80.7407 50.845C80.7407 50.845 80.544 71.4993 96.5757 80.2528C112.706 71.4993 112.411 50.845 112.411 50.845Z" fill="url(#paint4_linear_514_613)"/>
<path d="M107.788 54.1897L96.674 49.4688L85.56 54.1897C85.56 54.1897 85.3633 68.7461 96.674 74.9424C107.886 68.7461 107.788 54.1897 107.788 54.1897Z" fill="white"/>
<path d="M95.2971 67.7616L90.4777 62.8439L92.1497 61.2702L95.2971 64.4176L103.657 55.6641L105.329 57.3361L95.2971 67.7616Z" fill="#0359D6"/>
</g>
</g>
<path d="M34.965 78.1427V68.2493C34.965 63.1087 30.7714 58.915 25.6308 58.915H16.504C11.3634 58.915 7.16978 63.1087 7.16978 68.2493V78.1427C3.24669 78.2779 0 81.5246 0 85.583V109.699C0 113.757 3.38197 117.139 7.44033 117.139H34.6945C38.7528 117.139 42.1348 113.757 42.1348 109.699V85.583C42.1348 81.5246 38.8881 78.2779 34.965 78.1427ZM16.6393 62.7028H25.7661C28.8775 62.7028 31.3125 65.1379 31.3125 68.2493V78.1427H11.0929V68.2493C10.9576 65.1379 13.5279 62.7028 16.6393 62.7028Z" fill="#0359D6"/>
<path d="M27.8314 94.1057C27.8314 90.4532 24.8552 87.3418 21.0674 87.3418C17.4149 87.3418 14.3035 90.3179 14.3035 94.1057C14.3035 96.676 15.7915 98.8405 17.8207 100.058L13.8976 107.769H27.9666L24.0435 100.058C26.4786 98.9758 27.8314 96.676 27.8314 94.1057Z" fill="white"/>
<defs>
<linearGradient id="paint0_linear_514_613" x1="37.0907" y1="109.73" x2="95.375" y2="8.77848" gradientUnits="userSpaceOnUse">
<stop offset="0.00510204" stop-color="#528AE4"/>
<stop offset="1" stop-color="#52E2E4"/>
</linearGradient>
<linearGradient id="paint1_linear_514_613" x1="30.9568" y1="32.1858" x2="96.6032" y2="32.1858" gradientUnits="userSpaceOnUse">
<stop offset="0.00510204" stop-color="#FE5E68"/>
<stop offset="1" stop-color="#FE9A68"/>
</linearGradient>
<linearGradient id="paint2_linear_514_613" x1="61.8172" y1="57.9182" x2="70.6479" y2="57.9182" gradientUnits="userSpaceOnUse">
<stop offset="0.00510204" stop-color="#FE5E68"/>
<stop offset="1" stop-color="#FE9A68"/>
</linearGradient>
<linearGradient id="paint3_linear_514_613" x1="57.6132" y1="70.7429" x2="74.853" y2="70.7429" gradientUnits="userSpaceOnUse">
<stop offset="0.00510204" stop-color="#FE5E68"/>
<stop offset="1" stop-color="#FE9A68"/>
</linearGradient>
<linearGradient id="paint4_linear_514_613" x1="80.8461" y1="62.2051" x2="112.449" y2="62.2051" gradientUnits="userSpaceOnUse">
<stop offset="0.00510204" stop-color="#FE5E68"/>
<stop offset="1" stop-color="#FE9A68"/>
</linearGradient>
<clipPath id="clip0_514_613">
<rect width="117.041" height="117.041" fill="white" transform="translate(7.95886 0.979492)"/>
</clipPath>
</defs>
</svg>
