<svg width="14" height="15" viewBox="0 0 14 15" fill="none" xmlns="http://www.w3.org/2000/svg">
<path d="M14 12.4489C14 12.7724 13.8847 13.0193 13.6541 13.1893C13.4235 13.3594 13.1405 13.4444 12.805 13.4444H1.19497C0.859539 13.4444 0.57652 13.3573 0.345912 13.1831C0.115304 13.0089 0 12.7641 0 12.4489C0 12.2 0.0754717 11.947 0.226415 11.6898L6.02516 1.68444C6.30189 1.22815 6.62893 1 7.00629 1C7.38365 1 7.70231 1.22815 7.96226 1.68444L13.7736 11.7022C13.9245 11.9677 14 12.2166 14 12.4489ZM7.87421 6.08978V4.27289H6.12579V6.08978C6.12579 6.20592 6.13417 6.31585 6.15094 6.41956C6.16771 6.52326 6.19078 6.63941 6.22013 6.768C6.24948 6.89659 6.27254 7.00652 6.28931 7.09778L6.61635 9.11378H7.35849L7.69811 7.09778C7.71488 7.01481 7.74004 6.90696 7.77359 6.77422C7.80713 6.64148 7.83228 6.52326 7.84906 6.41956C7.86583 6.31585 7.87421 6.20592 7.87421 6.08978ZM7.87421 10.9058C7.87421 10.6652 7.78826 10.4619 7.61635 10.296C7.44444 10.1301 7.2369 10.0471 6.99371 10.0471C6.75891 10.0471 6.55556 10.1301 6.38365 10.296C6.21174 10.4619 6.12579 10.6652 6.12579 10.9058C6.12579 11.1464 6.21174 11.3517 6.38365 11.5218C6.55556 11.6919 6.75891 11.7769 6.99371 11.7769C7.2369 11.7769 7.44444 11.6919 7.61635 11.5218C7.78826 11.3517 7.87421 11.1464 7.87421 10.9058Z" fill="#0359D6"/>
</svg>
