<svg width="14" height="15" viewBox="0 0 14 15" fill="none" xmlns="http://www.w3.org/2000/svg">
<g clip-path="url(#clip0_516_798)">
<path d="M7 0.5C5.61553 0.5 4.26216 0.910543 3.11101 1.67971C1.95987 2.44888 1.06266 3.54213 0.532846 4.82122C0.00303297 6.1003 -0.13559 7.50776 0.134506 8.86563C0.404603 10.2235 1.07129 11.4708 2.05026 12.4497C3.02922 13.4287 4.2765 14.0954 5.63437 14.3655C6.99224 14.6356 8.3997 14.497 9.67879 13.9672C10.9579 13.4373 12.0511 12.5401 12.8203 11.389C13.5895 10.2378 14 8.88447 14 7.5C14 5.64348 13.2625 3.86301 11.9498 2.55025C10.637 1.2375 8.85652 0.5 7 0.5ZM11.5719 5.15063L5.82313 10.895L2.42813 7.5C2.3121 7.38397 2.24691 7.22659 2.24691 7.0625C2.24691 6.89841 2.3121 6.74103 2.42813 6.625C2.54416 6.50897 2.70153 6.44378 2.86563 6.44378C3.02972 6.44378 3.1871 6.50897 3.30313 6.625L5.83188 9.15375L10.7056 4.28437C10.7631 4.22692 10.8313 4.18135 10.9064 4.15025C10.9814 4.11916 11.0619 4.10316 11.1431 4.10316C11.2244 4.10316 11.3048 4.11916 11.3799 4.15025C11.455 4.18135 11.5232 4.22692 11.5806 4.28437C11.6381 4.34183 11.6837 4.41004 11.7148 4.4851C11.7458 4.56017 11.7618 4.64062 11.7618 4.72187C11.7618 4.80313 11.7458 4.88358 11.7148 4.95865C11.6837 5.03371 11.6381 5.10192 11.5806 5.15937L11.5719 5.15063Z" fill="#00B998"/>
</g>
<defs>
<clipPath id="clip0_516_798">
<rect width="14" height="14" fill="white" transform="translate(0 0.5)"/>
</clipPath>
</defs>
</svg>
