<svg width="20" height="20" viewBox="0 0 20 20" fill="none" xmlns="http://www.w3.org/2000/svg">
<path d="M16.5 16.4997C16.5 17.2941 15.85 17.9441 15.0556 17.9441H4.94444C4.15 17.9441 3.5 17.2941 3.5 16.4997V9.27745C3.5 8.48301 4.15 7.83301 4.94444 7.83301H15.0556C15.85 7.83301 16.5 8.48301 16.5 9.27745V16.4997Z" stroke="white" stroke-width="1.5" stroke-miterlimit="10" stroke-linecap="round" stroke-linejoin="round"/>
<path d="M10.0001 12.1661C10.3989 12.1661 10.7223 11.8428 10.7223 11.4439C10.7223 11.045 10.3989 10.7217 10.0001 10.7217C9.60118 10.7217 9.27783 11.045 9.27783 11.4439C9.27783 11.8428 9.60118 12.1661 10.0001 12.1661Z" stroke="white" stroke-width="1.5" stroke-miterlimit="10" stroke-linecap="round"/>
<path d="M10.0001 12.165V14.3317" stroke="white" stroke-width="1.5" stroke-miterlimit="10" stroke-linecap="round"/>
<path d="M13.611 5.66504V7.54282" stroke="white" stroke-width="1.5" stroke-miterlimit="10" stroke-linecap="round" stroke-linejoin="round"/>
<path d="M6.38879 7.75948V5.66504" stroke="white" stroke-width="1.5" stroke-miterlimit="10" stroke-linecap="round" stroke-linejoin="round"/>
<path d="M6.38879 5.66678C6.38879 3.64455 7.97768 2.05566 9.9999 2.05566C12.0221 2.05566 13.611 3.64455 13.611 5.66678" stroke="white" stroke-width="1.5" stroke-miterlimit="10" stroke-linecap="round" stroke-linejoin="round"/>
</svg>
