<svg width="16" height="17" viewBox="0 0 16 17" fill="none" xmlns="http://www.w3.org/2000/svg">
<path d="M15 13.7262C15 14.0498 14.8847 14.2966 14.6541 14.4667C14.4235 14.6368 14.1405 14.7218 13.805 14.7218H2.19497C1.85954 14.7218 1.57652 14.6347 1.34591 14.4605C1.1153 14.2862 1 14.0415 1 13.7262C1 13.4773 1.07547 13.2243 1.22642 12.9671L7.02516 2.96179C7.30189 2.50549 7.62893 2.27734 8.00629 2.27734C8.38365 2.27734 8.70231 2.50549 8.96226 2.96179L14.7736 12.9796C14.9245 13.245 15 13.4939 15 13.7262ZM8.87421 7.36712V5.55023H7.12579V7.36712C7.12579 7.48327 7.13417 7.59319 7.15094 7.6969C7.16771 7.8006 7.19078 7.91675 7.22013 8.04534C7.24948 8.17394 7.27254 8.28386 7.28931 8.37512L7.61635 10.3911H8.35849L8.69811 8.37512C8.71488 8.29216 8.74004 8.18431 8.77359 8.05157C8.80713 7.91882 8.83228 7.8006 8.84906 7.6969C8.86583 7.59319 8.87421 7.48327 8.87421 7.36712ZM8.87421 12.1831C8.87421 11.9425 8.78826 11.7393 8.61635 11.5733C8.44444 11.4074 8.2369 11.3245 7.99371 11.3245C7.75891 11.3245 7.55556 11.4074 7.38365 11.5733C7.21174 11.7393 7.12579 11.9425 7.12579 12.1831C7.12579 12.4237 7.21174 12.629 7.38365 12.7991C7.55556 12.9692 7.75891 13.0542 7.99371 13.0542C8.2369 13.0542 8.44444 12.9692 8.61635 12.7991C8.78826 12.629 8.87421 12.4237 8.87421 12.1831Z" fill="#0359D6"/>
</svg>
