<svg width="18" height="18" viewBox="0 0 18 18" fill="none" xmlns="http://www.w3.org/2000/svg">
<path opacity="0.6" d="M14.8517 6.61291H12.2116C13.8175 6.55848 15.0967 5.25202 15.0967 3.61896C15.0967 1.95867 13.763 0.625 12.1028 0.625C10.4425 0.625 9.1088 1.95867 9.1088 3.61896C9.1088 5.22481 10.388 6.53126 11.9939 6.61291H9.35376C7.93843 6.61291 6.76807 7.78328 6.76807 9.1986V14.1795H17.4374V9.17138C17.4374 7.75606 16.2671 6.61291 14.8517 6.61291Z" fill="url(#paint0_linear_165_1589)"/>
<g opacity="0.7">
<path d="M8.64618 9.80823H6.00606C7.61191 9.75379 8.89114 8.44734 8.89114 6.81427C8.89114 5.15398 7.55747 3.82031 5.89719 3.82031C4.2369 3.82031 2.90323 5.15398 2.90323 6.81427C2.90323 8.42012 4.18247 9.72657 5.78831 9.80823H3.14819C1.70565 9.80823 0.5625 10.9786 0.5625 12.3939V17.3748H11.2319V12.3939C11.2319 10.9786 10.0887 9.80823 8.64618 9.80823Z" fill="url(#paint1_linear_165_1589)"/>
</g>
<path opacity="0.2" d="M6.79501 6.16117C6.79501 5.37185 6.68614 4.63697 6.49562 3.90209C6.30509 3.87487 6.11457 3.84766 5.92404 3.84766C4.26376 3.84766 2.93009 5.18133 2.93009 6.84161C2.93009 8.44746 4.20932 9.75392 5.81517 9.83557H3.17505C1.7325 9.83557 0.589355 11.0059 0.589355 12.4213V14.2176C4.15489 13.265 6.79501 10.0261 6.79501 6.16117Z" fill="white"/>
<defs>
<linearGradient id="paint0_linear_165_1589" x1="12.0981" y1="14.0613" x2="12.0981" y2="0.56128" gradientUnits="userSpaceOnUse">
<stop stop-color="#31A2C7"/>
<stop offset="1" stop-color="#3FD0FF"/>
</linearGradient>
<linearGradient id="paint1_linear_165_1589" x1="5.90747" y1="17.4346" x2="5.90747" y2="3.37207" gradientUnits="userSpaceOnUse">
<stop stop-color="#2199BF"/>
<stop offset="1" stop-color="#2FC4F4"/>
</linearGradient>
</defs>
</svg>
