<svg width="18" height="18" viewBox="0 0 18 18" fill="none" xmlns="http://www.w3.org/2000/svg">
<path d="M17.4375 6.87719C17.4375 7.76393 16.6869 8.48945 15.7695 8.48945H2.23054C1.31312 8.48945 0.5625 7.76393 0.5625 6.87719V2.17476C0.5625 1.28802 1.31312 0.5625 2.23054 0.5625H15.7695C16.6869 0.5625 17.4375 1.28802 17.4375 2.17476V6.87719Z" fill="url(#paint0_linear_165_1612)"/>
<path d="M14.1011 4.54016C14.1011 5.13132 13.6007 5.58813 13.0168 5.58813C12.433 5.58813 11.9326 5.10445 11.9326 4.54016C11.9326 3.94899 12.433 3.49219 13.0168 3.49219C13.6007 3.49219 14.1011 3.94899 14.1011 4.54016Z" fill="white"/>
<path d="M5.31679 4.53906H3.92676" stroke="white" stroke-width="1.5" stroke-linecap="round" stroke-linejoin="round"/>
<path d="M9.1249 4.53906H7.73486" stroke="white" stroke-width="1.5" stroke-linecap="round" stroke-linejoin="round"/>
<path opacity="0.2" d="M10.8487 0.5625H2.23054C1.31312 0.5625 0.5625 1.28802 0.5625 2.17476V5.56051C1.50772 5.99045 2.53635 6.20541 3.64837 6.20541C7.20686 6.20541 10.1537 3.78702 10.8487 0.5625Z" fill="white"/>
<path d="M17.4375 15.8225C17.4375 16.7092 16.6869 17.4348 15.7695 17.4348H2.23054C1.31312 17.4348 0.5625 16.7092 0.5625 15.8225V11.1201C0.5625 10.2333 1.31312 9.50781 2.23054 9.50781H15.7695C16.6869 9.50781 17.4375 10.2333 17.4375 11.1201V15.8225Z" fill="url(#paint1_linear_165_1612)"/>
<path d="M14.1011 13.4542C14.1011 14.0454 13.6007 14.5022 13.0168 14.5022C12.433 14.5022 11.9326 14.0185 11.9326 13.4542C11.9326 12.8631 12.433 12.4062 13.0168 12.4062C13.6007 12.4062 14.1011 12.8899 14.1011 13.4542Z" fill="white"/>
<path d="M5.31679 13.457H3.92676" stroke="white" stroke-width="1.5" stroke-linecap="round" stroke-linejoin="round"/>
<path d="M9.1249 13.457H7.73486" stroke="white" stroke-width="1.5" stroke-linecap="round" stroke-linejoin="round"/>
<path opacity="0.2" d="M10.8487 9.51172H2.23054C1.31312 9.51172 0.5625 10.2372 0.5625 11.124V14.5097C1.50772 14.9397 2.53635 15.1546 3.64837 15.1546C7.20686 15.1546 10.1537 12.7362 10.8487 9.51172Z" fill="white"/>
<defs>
<linearGradient id="paint0_linear_165_1612" x1="8.99936" y1="9.00774" x2="8.99936" y2="1.64495" gradientUnits="userSpaceOnUse">
<stop stop-color="#438DD0"/>
<stop offset="1" stop-color="#57AFFF"/>
</linearGradient>
<linearGradient id="paint1_linear_165_1612" x1="8.99936" y1="17.9511" x2="8.99936" y2="10.5883" gradientUnits="userSpaceOnUse">
<stop stop-color="#438DD0"/>
<stop offset="1" stop-color="#57B0FF"/>
</linearGradient>
</defs>
</svg>
