<svg width="18" height="19" viewBox="0 0 18 19" fill="none" xmlns="http://www.w3.org/2000/svg">
<path d="M13.1536 0.367188H7.02662C6.14392 0.367188 5.41699 1.09411 5.41699 1.97681V12.4653C5.41699 13.348 6.14392 14.075 7.02662 14.075H15.4642C16.3469 14.075 17.0738 13.348 17.0738 12.4653V4.2874L13.1536 0.367188Z" fill="url(#paint0_linear_165_1644)"/>
<g opacity="0.5">
<path d="M13.4912 2.67778C13.4912 3.56048 14.2181 4.2874 15.1008 4.2874H17.4374L13.4912 0.367188V2.67778Z" fill="white"/>
</g>
<path opacity="0.2" d="M11.3363 0.367188H7.02662C6.14392 0.367188 5.41699 1.09411 5.41699 1.97681V7.6105C8.76605 6.83165 11.2584 3.89798 11.3363 0.367188Z" fill="white"/>
<g opacity="0.6">
<path d="M8.29908 3.89844H2.17212C1.28943 3.89844 0.5625 4.62536 0.5625 5.50806V16.0225C0.5625 16.9052 1.28943 17.6322 2.17212 17.6322H10.6097C11.4924 17.6322 12.2193 16.9052 12.2193 16.0225V7.81865L8.29908 3.89844Z" fill="url(#paint1_linear_165_1644)"/>
<path d="M8.29932 6.23499C8.29932 7.11769 9.02624 7.84461 9.90894 7.84461H12.2455L8.29932 3.89844V6.23499Z" fill="white"/>
<path opacity="0.2" d="M6.48176 3.89844H2.17212C1.28943 3.89844 0.5625 4.62537 0.5625 5.50806V11.1417C3.8856 10.3889 6.37792 7.42923 6.48176 3.89844Z" fill="white"/>
</g>
<path d="M8.29908 3.89453H2.17212C1.28943 3.89453 0.5625 4.62146 0.5625 5.50416V16.0186C0.5625 16.9013 1.28943 17.6283 2.17212 17.6283H10.6097C11.4924 17.6283 12.2193 16.9013 12.2193 16.0186V7.81475L8.29908 3.89453Z" stroke="white"/>
<defs>
<linearGradient id="paint0_linear_165_1644" x1="11.262" y1="14.1761" x2="11.262" y2="-1.91152" gradientUnits="userSpaceOnUse">
<stop stop-color="#5A78D5"/>
<stop offset="1" stop-color="#688BF5"/>
</linearGradient>
<linearGradient id="paint1_linear_165_1644" x1="6.3923" y1="17.7184" x2="6.3923" y2="1.63079" gradientUnits="userSpaceOnUse">
<stop stop-color="#5F7DDA"/>
<stop offset="1" stop-color="#688BF5"/>
</linearGradient>
</defs>
</svg>
