<svg width="38" height="38" viewBox="0 0 38 38" fill="none" xmlns="http://www.w3.org/2000/svg">
<path d="M16.1514 29.6666H21.8487C23.0102 29.6666 23.9506 28.7816 24.2271 27.5647H35.4003V6.60111C35.4003 5.2736 34.2388 4.22266 32.8006 4.22266H5.14414C3.70601 4.22266 2.54443 5.2736 2.54443 6.60111V27.5094H13.7177C14.0495 28.7816 14.9899 29.6666 16.1514 29.6666Z" fill="url(#paint0_linear_161_1559)"/>
<path d="M23.8399 27.5625C23.5633 28.7794 22.6783 29.6644 21.6274 29.6644H16.3726C15.3217 29.6644 14.4367 28.7794 14.1601 27.5625H0V30.1622C0 31.8769 1.10626 33.315 2.48908 33.315H35.5109C36.8937 33.315 38 31.9322 38 30.1622V27.5625H23.8399Z" fill="url(#paint1_linear_161_1559)"/>
<path opacity="0.2" d="M23.6738 4.27734H5.19932C3.76118 4.27734 2.59961 5.32829 2.59961 6.6558V20.7053C3.70587 20.9265 4.86744 21.0372 6.02901 21.0372C15.4875 20.9819 23.176 13.5699 23.6738 4.27734Z" fill="white"/>
<path d="M25.1129 14.797H23.3276C23.25 14.4865 23.0947 14.176 22.9395 13.8655L24.1814 12.6236C24.3755 12.4296 24.3755 12.0803 24.1814 11.8862L23.1335 10.8383C22.9395 10.6443 22.5902 10.6443 22.3961 10.8383L21.1542 12.0803C20.8437 11.925 20.5721 11.8086 20.2228 11.6922V9.90688C20.2228 9.63521 19.9899 9.40234 19.7182 9.40234H18.2046C17.9329 9.40234 17.7001 9.63521 17.7001 9.90688V11.6922C17.3896 11.7698 17.0791 11.925 16.7686 12.0803L15.5655 10.8383C15.3715 10.6443 15.0222 10.6443 14.8281 10.8383L13.7802 11.8862C13.5862 12.0803 13.5862 12.4296 13.7802 12.6236L15.0222 13.8655C14.8669 14.176 14.7505 14.4865 14.6341 14.797H12.8488C12.5771 14.797 12.3442 15.0299 12.3442 15.3015V16.8151C12.3442 17.0868 12.5771 17.3197 12.8488 17.3197H14.6341C14.7117 17.6302 14.8669 17.9406 15.0222 18.2511L13.7802 19.4931C13.5862 19.6871 13.5862 20.0364 13.7802 20.2305L14.8281 21.2783C15.0222 21.4724 15.3715 21.4724 15.5655 21.2783L16.8074 20.0364C17.1179 20.1917 17.4284 20.3081 17.7389 20.4245V22.2098C17.7389 22.4815 17.9718 22.7143 18.2434 22.7143H19.757C20.0287 22.7143 20.2616 22.4815 20.2616 22.2098V20.4245C20.5721 20.3469 20.8825 20.1917 21.193 20.0364L22.435 21.2783C22.629 21.4724 22.9783 21.4724 23.1724 21.2783L24.2202 20.2305C24.4143 20.0364 24.4143 19.6871 24.2202 19.4931L22.9783 18.2511C23.1335 17.9795 23.25 17.669 23.3664 17.3197H25.1517C25.4234 17.3197 25.6562 17.0868 25.6562 16.8151V15.3015C25.6562 15.0299 25.4234 14.797 25.1129 14.797ZM18.9808 17.8242C18.0106 17.8242 17.2344 17.048 17.2344 16.0777C17.2344 15.1075 18.0106 14.3313 18.9808 14.3313C19.9511 14.3313 20.7273 15.1075 20.7273 16.0777C20.7661 17.0092 19.9511 17.8242 18.9808 17.8242Z" fill="white"/>
<defs>
<linearGradient id="paint0_linear_161_1559" x1="19.0123" y1="32.0426" x2="19.0123" y2="3.99382" gradientUnits="userSpaceOnUse">
<stop stop-color="#1E56A8"/>
<stop offset="1" stop-color="#2E7DF1"/>
</linearGradient>
<linearGradient id="paint1_linear_161_1559" x1="19.0122" y1="32.998" x2="19.0122" y2="27.998" gradientUnits="userSpaceOnUse">
<stop stop-color="#286ED6"/>
<stop offset="0.0001" stop-color="#3068BB"/>
<stop offset="1" stop-color="#418BF9"/>
</linearGradient>
</defs>
</svg>
