<svg width="14" height="14" viewBox="0 0 14 14" fill="none" xmlns="http://www.w3.org/2000/svg">
<path d="M6.22513 0.5C5.09281 0.5 3.98592 0.835773 3.04442 1.46486C2.10293 2.09394 1.36912 2.98809 0.935802 4.03422C0.502481 5.08035 0.389104 6.23148 0.610009 7.34205C0.830915 8.45262 1.37618 9.47274 2.17686 10.2734C2.97753 11.0741 3.99765 11.6194 5.10822 11.8403C6.21878 12.0612 7.36992 11.9478 8.41605 11.5145C9.46218 11.0811 10.3563 10.3473 10.9854 9.40584C11.6145 8.46435 11.9503 7.35746 11.9503 6.22513C11.9485 4.70726 11.3448 3.25205 10.2715 2.17875C9.19822 1.10545 7.74301 0.50172 6.22513 0.5V0.5ZM6.22513 10.8927C5.30184 10.8927 4.39929 10.6189 3.6316 10.106C2.86391 9.59303 2.26557 8.86395 1.91224 8.01094C1.55891 7.15793 1.46646 6.2193 1.64659 5.31375C1.82671 4.4082 2.27132 3.5764 2.92419 2.92353C3.57705 2.27067 4.40885 1.82606 5.31441 1.64594C6.21996 1.46581 7.15859 1.55826 8.0116 1.91159C8.86461 2.26491 9.59369 2.86326 10.1066 3.63094C10.6196 4.39863 10.8934 5.30119 10.8934 6.22448C10.892 7.46216 10.3997 8.64874 9.52456 9.52391C8.64939 10.3991 7.46281 10.8914 6.22513 10.8927Z" fill="white"/>
<path d="M13.3452 12.5985L10.3156 9.56887C10.2666 9.51979 10.2083 9.48086 10.1442 9.4543C10.08 9.42773 10.0113 9.41406 9.94189 9.41406C9.87248 9.41406 9.80374 9.42773 9.73962 9.4543C9.67549 9.48086 9.61722 9.51979 9.56814 9.56887C9.51906 9.61795 9.48013 9.67622 9.45356 9.74035C9.427 9.80448 9.41333 9.87321 9.41333 9.94262C9.41333 10.012 9.427 10.0808 9.45356 10.1449C9.48013 10.209 9.51906 10.2673 9.56814 10.3164L12.5978 13.346C12.6969 13.4451 12.8313 13.5008 12.9715 13.5008C13.1117 13.5008 13.2461 13.4451 13.3452 13.346C13.4444 13.2469 13.5001 13.1124 13.5001 12.9722C13.5001 12.8321 13.4444 12.6976 13.3452 12.5985Z" fill="white"/>
</svg>
