<svg width="30" height="24" viewBox="0 0 30 24" fill="none" xmlns="http://www.w3.org/2000/svg">
<g clip-path="url(#clip0_147_1738)">
<path d="M26.7787 21.0602C26.7787 21.8477 26.1076 22.5039 25.3022 22.5039H4.69819C3.89282 22.5039 3.22168 21.8477 3.22168 21.0602V2.94766C3.22168 2.16016 3.89282 1.50391 4.69819 1.50391H25.3022C26.1076 1.50391 26.7787 2.16016 26.7787 2.94766V21.0602Z" fill="white" stroke="#333333" stroke-width="1.5"/>
<path d="M0.503418 18.9941V20.9405C0.503418 22.3163 1.6108 23.4572 3.0202 23.4572H27.0135C28.3893 23.4572 29.5303 22.3498 29.5303 20.9405V18.9941H0.503418Z" fill="#B9D4E3" stroke="#333333" stroke-width="1.5"/>
<path d="M13.8257 21.209H16.2082" stroke="#333333" stroke-width="1.5" stroke-linecap="round" stroke-linejoin="round"/>
<path d="M15.0166 12.8594C18.6034 12.8594 21.5653 15.484 21.9444 18.9268H8.08975C8.46468 15.5865 11.3154 12.8594 15.0166 12.8594Z" fill="#F57D22" stroke="#333333" stroke-width="1.5"/>
<path d="M15.0166 5.29297C16.7213 5.29297 18.0503 6.62202 18.0503 8.32668C18.0503 10.0314 16.7213 11.3604 15.0166 11.3604C13.2732 11.3604 11.8315 9.99366 11.8315 8.32668C11.8315 6.65971 13.2732 5.29297 15.0166 5.29297Z" fill="#FFD5AB" stroke="#333333" stroke-width="1.5"/>
</g>
<defs>
<clipPath id="clip0_147_1738">
<rect width="30" height="23.9597" fill="white"/>
</clipPath>
</defs>
</svg>
