<svg width="8" height="14" viewBox="0 0 8 14" fill="none" xmlns="http://www.w3.org/2000/svg">
<path fill-rule="evenodd" clip-rule="evenodd" d="M1.14193 13.9142C0.916043 13.914 0.695259 13.8463 0.507475 13.7196C0.319703 13.593 0.173367 13.413 0.0869449 13.2025C0.000522574 12.992 -0.0221109 12.7604 0.0219066 12.5369C0.0659263 12.3135 0.174629 12.1082 0.33426 11.947L2.78773 9.4726L5.24121 6.99822L0.331466 2.04752C0.119876 1.83088 0.00174834 1.5387 0.00279516 1.23461C0.00384196 0.930547 0.12397 0.639188 0.337063 0.424025C0.55015 0.208868 0.838903 0.0873641 1.1404 0.08595C1.44191 0.0845359 1.73176 0.20333 1.94682 0.416474L1.95037 0.419994L7.66479 6.18314C7.77095 6.29015 7.8554 6.41743 7.91288 6.55726C7.97038 6.69717 8 6.84716 8 6.99866C8 7.15015 7.97039 7.30015 7.91288 7.44007C7.85539 7.57993 7.77115 7.70696 7.66501 7.81395L1.95036 13.5773C1.73591 13.7928 1.44468 13.9145 1.14193 13.9142Z" fill="#0080C6"/>
</svg>
