<svg width="15" height="10" viewBox="0 0 15 10" fill="none" xmlns="http://www.w3.org/2000/svg">
<path d="M14.142 0.548597C14.0507 0.460121 13.9422 0.389935 13.8229 0.342049C13.7036 0.294164 13.5757 0.269517 13.4465 0.269517C13.3173 0.269517 13.1894 0.294164 13.0701 0.342049C12.9507 0.389935 12.8423 0.460121 12.751 0.548597L5.96436 7.40355L1.70736 2.92561C1.61986 2.83358 1.5145 2.75913 1.3973 2.70653C1.2801 2.65393 1.15334 2.6242 1.02428 2.61903C0.895207 2.61387 0.766352 2.63338 0.645069 2.67644C0.523785 2.7195 0.412447 2.78528 0.317412 2.87001C0.222377 2.95474 0.145506 3.05677 0.0911884 3.17028C0.0368706 3.28378 0.00616956 3.40653 0.000838164 3.53152C-0.00449323 3.65652 0.0156496 3.7813 0.0601163 3.89876C0.104583 4.01621 0.172503 4.12403 0.259998 4.21607L5.21066 9.42239C5.30036 9.51675 5.40884 9.59258 5.52957 9.6453C5.6503 9.69803 5.78079 9.72657 5.91321 9.7292H5.93408C6.19433 9.72904 6.44392 9.62909 6.62827 9.4512L14.142 1.89466C14.3262 1.71609 14.4296 1.47402 14.4296 1.22163C14.4296 0.969232 14.3262 0.72716 14.142 0.548597Z" fill="white"/>
</svg>
