<svg width="42" height="42" viewBox="0 0 42 42" fill="none" xmlns="http://www.w3.org/2000/svg">
<g filter="url(#filter0_d_161_1586)">
<rect x="6" y="4" width="30" height="30" rx="15" fill="white" shape-rendering="crispEdges"/>
<g clip-path="url(#clip0_161_1586)">
<path d="M29.4377 16.8772C29.4377 17.7639 28.6871 18.4895 27.7697 18.4895H14.2308C13.3134 18.4895 12.5627 17.7639 12.5627 16.8772V12.1748C12.5627 11.288 13.3134 10.5625 14.2308 10.5625H27.7697C28.6871 10.5625 29.4377 11.288 29.4377 12.1748V16.8772Z" fill="url(#paint0_linear_161_1586)"/>
<path d="M26.1016 14.5402C26.1016 15.1313 25.6011 15.5881 25.0173 15.5881C24.4335 15.5881 23.9331 15.1044 23.9331 14.5402C23.9331 13.949 24.4335 13.4922 25.0173 13.4922C25.6011 13.4922 26.1016 13.949 26.1016 14.5402Z" fill="white"/>
<path d="M17.3168 14.5391H15.9268" stroke="white" stroke-width="1.5" stroke-linecap="round" stroke-linejoin="round"/>
<path d="M21.1251 14.5391H19.7351" stroke="white" stroke-width="1.5" stroke-linecap="round" stroke-linejoin="round"/>
<path opacity="0.2" d="M22.849 10.5625H14.2308C13.3134 10.5625 12.5627 11.288 12.5627 12.1748V15.5605C13.508 15.9904 14.5366 16.2054 15.6486 16.2054C19.2071 16.2054 22.154 13.787 22.849 10.5625Z" fill="white"/>
<path d="M29.4377 25.8225C29.4377 26.7092 28.6871 27.4348 27.7697 27.4348H14.2308C13.3134 27.4348 12.5627 26.7092 12.5627 25.8225V21.1201C12.5627 20.2333 13.3134 19.5078 14.2308 19.5078H27.7697C28.6871 19.5078 29.4377 20.2333 29.4377 21.1201V25.8225Z" fill="url(#paint1_linear_161_1586)"/>
<path d="M26.1016 23.4542C26.1016 24.0454 25.6011 24.5022 25.0173 24.5022C24.4335 24.5022 23.9331 24.0185 23.9331 23.4542C23.9331 22.8631 24.4335 22.4062 25.0173 22.4062C25.6011 22.4062 26.1016 22.8899 26.1016 23.4542Z" fill="white"/>
<path d="M17.3168 23.457H15.9268" stroke="white" stroke-width="1.5" stroke-linecap="round" stroke-linejoin="round"/>
<path d="M21.1251 23.457H19.7351" stroke="white" stroke-width="1.5" stroke-linecap="round" stroke-linejoin="round"/>
<path opacity="0.2" d="M22.849 19.5117H14.2308C13.3134 19.5117 12.5627 20.2372 12.5627 21.124V24.5097C13.508 24.9397 14.5366 25.1546 15.6486 25.1546C19.2071 25.1546 22.154 22.7362 22.849 19.5117Z" fill="white"/>
</g>
</g>
<defs>
<filter id="filter0_d_161_1586" x="0" y="0" width="42" height="42" filterUnits="userSpaceOnUse" color-interpolation-filters="sRGB">
<feFlood flood-opacity="0" result="BackgroundImageFix"/>
<feColorMatrix in="SourceAlpha" type="matrix" values="0 0 0 0 0 0 0 0 0 0 0 0 0 0 0 0 0 0 127 0" result="hardAlpha"/>
<feOffset dy="2"/>
<feGaussianBlur stdDeviation="3"/>
<feComposite in2="hardAlpha" operator="out"/>
<feColorMatrix type="matrix" values="0 0 0 0 0 0 0 0 0 0 0 0 0 0 0 0 0 0 0.16 0"/>
<feBlend mode="normal" in2="BackgroundImageFix" result="effect1_dropShadow_161_1586"/>
<feBlend mode="normal" in="SourceGraphic" in2="effect1_dropShadow_161_1586" result="shape"/>
</filter>
<linearGradient id="paint0_linear_161_1586" x1="20.9996" y1="19.0077" x2="20.9996" y2="11.6449" gradientUnits="userSpaceOnUse">
<stop stop-color="#438DD0"/>
<stop offset="1" stop-color="#57AFFF"/>
</linearGradient>
<linearGradient id="paint1_linear_161_1586" x1="20.9996" y1="27.9511" x2="20.9996" y2="20.5883" gradientUnits="userSpaceOnUse">
<stop stop-color="#438DD0"/>
<stop offset="1" stop-color="#57B0FF"/>
</linearGradient>
<clipPath id="clip0_161_1586">
<rect width="18" height="18" fill="white" transform="translate(12 10)"/>
</clipPath>
</defs>
</svg>
