<svg width="42" height="42" viewBox="0 0 42 42" fill="none" xmlns="http://www.w3.org/2000/svg">
<g filter="url(#filter0_d_161_1577)">
<rect x="6" y="4" width="30" height="30" rx="15" fill="white" shape-rendering="crispEdges"/>
<g clip-path="url(#clip0_161_1577)">
<path opacity="0.6" d="M26.8517 16.6129H24.2116C25.8175 16.5585 27.0967 15.252 27.0967 13.619C27.0967 11.9587 25.763 10.625 24.1028 10.625C22.4425 10.625 21.1088 11.9587 21.1088 13.619C21.1088 15.2248 22.388 16.5313 23.9939 16.6129H21.3538C19.9384 16.6129 18.7681 17.7833 18.7681 19.1986V24.1795H29.4374V19.1714C29.4374 17.7561 28.2671 16.6129 26.8517 16.6129Z" fill="url(#paint0_linear_161_1577)"/>
<g opacity="0.7">
<path d="M20.6462 19.8082H18.0061C19.6119 19.7538 20.8911 18.4473 20.8911 16.8143C20.8911 15.154 19.5575 13.8203 17.8972 13.8203C16.2369 13.8203 14.9032 15.154 14.9032 16.8143C14.9032 18.4201 16.1825 19.7266 17.7883 19.8082H15.1482C13.7056 19.8082 12.5625 20.9786 12.5625 22.3939V27.3748H23.2319V22.3939C23.2319 20.9786 22.0887 19.8082 20.6462 19.8082Z" fill="url(#paint1_linear_161_1577)"/>
</g>
<path opacity="0.2" d="M18.795 16.1612C18.795 15.3719 18.6861 14.637 18.4956 13.9021C18.3051 13.8749 18.1146 13.8477 17.924 13.8477C16.2638 13.8477 14.9301 15.1813 14.9301 16.8416C14.9301 18.4475 16.2093 19.7539 17.8152 19.8356H15.175C13.7325 19.8356 12.5894 21.0059 12.5894 22.4213V24.2176C16.1549 23.265 18.795 20.0261 18.795 16.1612Z" fill="white"/>
</g>
</g>
<defs>
<filter id="filter0_d_161_1577" x="0" y="0" width="42" height="42" filterUnits="userSpaceOnUse" color-interpolation-filters="sRGB">
<feFlood flood-opacity="0" result="BackgroundImageFix"/>
<feColorMatrix in="SourceAlpha" type="matrix" values="0 0 0 0 0 0 0 0 0 0 0 0 0 0 0 0 0 0 127 0" result="hardAlpha"/>
<feOffset dy="2"/>
<feGaussianBlur stdDeviation="3"/>
<feComposite in2="hardAlpha" operator="out"/>
<feColorMatrix type="matrix" values="0 0 0 0 0 0 0 0 0 0 0 0 0 0 0 0 0 0 0.16 0"/>
<feBlend mode="normal" in2="BackgroundImageFix" result="effect1_dropShadow_161_1577"/>
<feBlend mode="normal" in="SourceGraphic" in2="effect1_dropShadow_161_1577" result="shape"/>
</filter>
<linearGradient id="paint0_linear_161_1577" x1="24.0981" y1="24.0613" x2="24.0981" y2="10.5613" gradientUnits="userSpaceOnUse">
<stop stop-color="#31A2C7"/>
<stop offset="1" stop-color="#3FD0FF"/>
</linearGradient>
<linearGradient id="paint1_linear_161_1577" x1="17.9075" y1="27.4346" x2="17.9075" y2="13.3721" gradientUnits="userSpaceOnUse">
<stop stop-color="#2199BF"/>
<stop offset="1" stop-color="#2FC4F4"/>
</linearGradient>
<clipPath id="clip0_161_1577">
<rect width="18" height="18" fill="white" transform="translate(12 10)"/>
</clipPath>
</defs>
</svg>
