<svg width="42" height="42" viewBox="0 0 42 42" fill="none" xmlns="http://www.w3.org/2000/svg">
<g filter="url(#filter0_d_161_1602)">
<rect x="6" y="4" width="30" height="30" rx="15" fill="white" shape-rendering="crispEdges"/>
<g clip-path="url(#clip0_161_1602)">
<path d="M25.1533 10.3672H19.0264C18.1437 10.3672 17.4167 11.0941 17.4167 11.9768V22.4653C17.4167 23.348 18.1437 24.075 19.0264 24.075H27.4639C28.3466 24.075 29.0735 23.348 29.0735 22.4653V14.2874L25.1533 10.3672Z" fill="url(#paint0_linear_161_1602)"/>
<g opacity="0.5">
<path d="M25.4912 12.6778C25.4912 13.5605 26.2181 14.2874 27.1008 14.2874H29.4374L25.4912 10.3672V12.6778Z" fill="white"/>
</g>
<path opacity="0.2" d="M23.336 10.3672H19.0264C18.1437 10.3672 17.4167 11.0941 17.4167 11.9768V17.6105C20.7658 16.8316 23.2581 13.898 23.336 10.3672Z" fill="white"/>
<g opacity="0.6">
<path d="M20.2991 13.8984H14.1721C13.2894 13.8984 12.5625 14.6254 12.5625 15.5081V26.0225C12.5625 26.9052 13.2894 27.6322 14.1721 27.6322H22.6097C23.4924 27.6322 24.2193 26.9052 24.2193 26.0225V17.8187L20.2991 13.8984Z" fill="url(#paint1_linear_161_1602)"/>
<path d="M20.2991 16.235C20.2991 17.1177 21.026 17.8446 21.9087 17.8446H24.2452L20.2991 13.8984V16.235Z" fill="white"/>
<path opacity="0.2" d="M18.4818 13.8984H14.1721C13.2894 13.8984 12.5625 14.6254 12.5625 15.5081V21.1417C15.8856 20.3889 18.3779 17.4292 18.4818 13.8984Z" fill="white"/>
</g>
<path d="M20.2991 13.8945H14.1721C13.2894 13.8945 12.5625 14.6215 12.5625 15.5042V26.0186C12.5625 26.9013 13.2894 27.6283 14.1721 27.6283H22.6097C23.4924 27.6283 24.2193 26.9013 24.2193 26.0186V17.8147L20.2991 13.8945Z" stroke="white"/>
</g>
</g>
<defs>
<filter id="filter0_d_161_1602" x="0" y="0" width="42" height="42" filterUnits="userSpaceOnUse" color-interpolation-filters="sRGB">
<feFlood flood-opacity="0" result="BackgroundImageFix"/>
<feColorMatrix in="SourceAlpha" type="matrix" values="0 0 0 0 0 0 0 0 0 0 0 0 0 0 0 0 0 0 127 0" result="hardAlpha"/>
<feOffset dy="2"/>
<feGaussianBlur stdDeviation="3"/>
<feComposite in2="hardAlpha" operator="out"/>
<feColorMatrix type="matrix" values="0 0 0 0 0 0 0 0 0 0 0 0 0 0 0 0 0 0 0.16 0"/>
<feBlend mode="normal" in2="BackgroundImageFix" result="effect1_dropShadow_161_1602"/>
<feBlend mode="normal" in="SourceGraphic" in2="effect1_dropShadow_161_1602" result="shape"/>
</filter>
<linearGradient id="paint0_linear_161_1602" x1="23.2618" y1="24.1761" x2="23.2618" y2="8.08848" gradientUnits="userSpaceOnUse">
<stop stop-color="#5A78D5"/>
<stop offset="1" stop-color="#688BF5"/>
</linearGradient>
<linearGradient id="paint1_linear_161_1602" x1="18.3923" y1="27.7184" x2="18.3923" y2="11.6308" gradientUnits="userSpaceOnUse">
<stop stop-color="#5F7DDA"/>
<stop offset="1" stop-color="#688BF5"/>
</linearGradient>
<clipPath id="clip0_161_1602">
<rect width="18" height="18.6279" fill="white" transform="translate(12 9.6875)"/>
</clipPath>
</defs>
</svg>
