<svg width="42" height="42" viewBox="0 0 42 42" fill="none" xmlns="http://www.w3.org/2000/svg">
<g filter="url(#filter0_d_165_562)">
<rect x="6" y="4" width="30" height="30" rx="15" fill="white" shape-rendering="crispEdges"/>
<g clip-path="url(#clip0_165_562)">
<path d="M28.875 18.9994V18.972C28.8201 17.2159 25.3354 15.7891 21 15.7891C16.6646 15.7891 13.1799 17.2159 13.125 18.972C13.125 18.972 13.125 24.8165 13.125 24.8439C13.125 26.6275 16.6646 28.0817 21 28.0817C25.3628 28.0817 28.875 26.6275 28.875 24.8439C28.875 24.8165 28.875 24.7616 28.875 24.7342V18.9994Z" fill="url(#paint0_linear_165_562)"/>
<path d="M13.125 18.9727C13.125 18.9727 13.125 24.8172 13.125 24.8446C13.125 26.6281 16.6646 28.0824 21 28.0824C25.3628 28.0824 28.875 26.6281 28.875 24.8446C28.875 24.8172 28.875 24.7623 28.875 24.7349V18.9727" fill="url(#paint1_linear_165_562)"/>
<path d="M13.125 18.9727C13.125 18.9727 13.125 24.8172 13.125 24.8446C13.125 26.6281 16.6646 28.0824 21 28.0824C25.3628 28.0824 28.875 26.6281 28.875 24.8446C28.875 24.8172 28.875 24.7623 28.875 24.7349V18.9727" stroke="white" stroke-linecap="round" stroke-linejoin="round"/>
<path d="M28.875 18.9995C28.875 20.7831 25.3354 22.2373 21 22.2373C16.6372 22.2373 13.125 20.7831 13.125 18.9995C13.125 17.216 16.6646 15.7617 21 15.7617C25.3628 15.7892 28.875 17.216 28.875 18.9995Z" fill="url(#paint2_linear_165_562)" stroke="white" stroke-linecap="round" stroke-linejoin="round"/>
<path d="M19.9023 25.2031H22.1249" stroke="white" stroke-linecap="round" stroke-linejoin="round"/>
<g opacity="0.5">
<path opacity="0.5" d="M28.875 13.1557V13.1282C28.8201 11.3721 25.3354 9.94531 21 9.94531C16.6646 9.94531 13.1799 11.3721 13.125 13.1282C13.125 13.1282 13.125 18.9728 13.125 19.0002C13.125 20.7837 16.6646 22.238 21 22.238C25.3628 22.238 28.875 20.7837 28.875 19.0002C28.875 18.9728 28.875 18.9179 28.875 18.8904V13.1557Z" fill="url(#paint3_linear_165_562)"/>
<path d="M13.125 13.1289C13.125 13.1289 13.125 18.9734 13.125 19.0009C13.125 20.7844 16.6646 22.2387 21 22.2387C25.3628 22.2387 28.875 20.7844 28.875 19.0009C28.875 18.9734 28.875 18.9185 28.875 18.8911V13.1289" fill="url(#paint4_linear_165_562)"/>
<path d="M13.125 13.1289C13.125 13.1289 13.125 18.9734 13.125 19.0009C13.125 20.7844 16.6646 22.2387 21 22.2387C25.3628 22.2387 28.875 20.7844 28.875 19.0009C28.875 18.9734 28.875 18.9185 28.875 18.8911V13.1289" stroke="white" stroke-linecap="round" stroke-linejoin="round"/>
<path d="M28.875 13.1558C28.875 14.9393 25.3354 16.3936 21 16.3936C16.6372 16.3936 13.125 14.9393 13.125 13.1558C13.125 11.3722 16.6646 9.91797 21 9.91797C25.3628 9.91797 28.875 11.3722 28.875 13.1558Z" fill="url(#paint5_linear_165_562)" stroke="white" stroke-linecap="round" stroke-linejoin="round"/>
<path d="M19.9023 19.4375H22.1249" stroke="white" stroke-linecap="round" stroke-linejoin="round"/>
</g>
</g>
</g>
<defs>
<filter id="filter0_d_165_562" x="0" y="0" width="42" height="42" filterUnits="userSpaceOnUse" color-interpolation-filters="sRGB">
<feFlood flood-opacity="0" result="BackgroundImageFix"/>
<feColorMatrix in="SourceAlpha" type="matrix" values="0 0 0 0 0 0 0 0 0 0 0 0 0 0 0 0 0 0 127 0" result="hardAlpha"/>
<feOffset dy="2"/>
<feGaussianBlur stdDeviation="3"/>
<feComposite in2="hardAlpha" operator="out"/>
<feColorMatrix type="matrix" values="0 0 0 0 0 0 0 0 0 0 0 0 0 0 0 0 0 0 0.16 0"/>
<feBlend mode="normal" in2="BackgroundImageFix" result="effect1_dropShadow_165_562"/>
<feBlend mode="normal" in="SourceGraphic" in2="effect1_dropShadow_165_562" result="shape"/>
</filter>
<linearGradient id="paint0_linear_165_562" x1="21" y1="15.7891" x2="21" y2="28.0817" gradientUnits="userSpaceOnUse">
<stop stop-color="#FFC5B8"/>
<stop offset="1" stop-color="#FA7B45"/>
</linearGradient>
<linearGradient id="paint1_linear_165_562" x1="21" y1="18.9727" x2="21" y2="28.0824" gradientUnits="userSpaceOnUse">
<stop stop-color="#FFC5B8"/>
<stop offset="1" stop-color="#FA7B45"/>
</linearGradient>
<linearGradient id="paint2_linear_165_562" x1="21" y1="15.7617" x2="21" y2="22.2373" gradientUnits="userSpaceOnUse">
<stop stop-color="#FFC5B8"/>
<stop offset="1" stop-color="#FA7B45"/>
</linearGradient>
<linearGradient id="paint3_linear_165_562" x1="21" y1="9.94531" x2="21" y2="22.238" gradientUnits="userSpaceOnUse">
<stop stop-color="#FA9359"/>
<stop offset="1" stop-color="#FCB87A"/>
</linearGradient>
<linearGradient id="paint4_linear_165_562" x1="21" y1="13.1289" x2="21" y2="22.2387" gradientUnits="userSpaceOnUse">
<stop stop-color="#FA9359"/>
<stop offset="1" stop-color="#FCB87A"/>
</linearGradient>
<linearGradient id="paint5_linear_165_562" x1="21" y1="9.91797" x2="21" y2="16.3936" gradientUnits="userSpaceOnUse">
<stop stop-color="#FA9359"/>
<stop offset="1" stop-color="#FCB87A"/>
</linearGradient>
<clipPath id="clip0_165_562">
<rect width="18" height="18" fill="white" transform="translate(12 10)"/>
</clipPath>
</defs>
</svg>
