<svg width="48" height="48" viewBox="0 0 48 48" fill="none" xmlns="http://www.w3.org/2000/svg">
<rect width="48" height="48" rx="10" fill="url(#paint0_linear_161_1573)"/>
<g clip-path="url(#clip0_161_1573)">
<path d="M33.3333 12H14.6667C13.2 12 12 13.2 12 14.6667V33.3333C12 34.8 13.2 36 14.6667 36H33.3333C34.8 36 36 34.8 36 33.3333V14.6667C36 13.2 34.8 12 33.3333 12ZM20 30.6667H17.3333V21.3333H20V30.6667ZM25.3333 30.6667H22.6667V17.3333H25.3333V30.6667ZM30.6667 30.6667H28V25.3333H30.6667V30.6667Z" fill="white"/>
</g>
<defs>
<linearGradient id="paint0_linear_161_1573" x1="0" y1="0" x2="48" y2="48" gradientUnits="userSpaceOnUse">
<stop stop-color="#FFC79D"/>
<stop offset="1" stop-color="#006BCB"/>
</linearGradient>
<clipPath id="clip0_161_1573">
<rect width="32" height="32" fill="white" transform="translate(8 8)"/>
</clipPath>
</defs>
</svg>
