<svg width="32" height="32" viewBox="0 0 32 32" fill="none" xmlns="http://www.w3.org/2000/svg">
<g clip-path="url(#clip0_141_860)">
<path d="M17.9858 17.4393L19.7483 14.3927C19.8616 14.2038 19.8112 13.9646 19.6475 13.8261L17.7843 12.3658C17.8221 12.0888 17.8473 11.7993 17.8473 11.5097C17.8473 11.2202 17.8221 10.9306 17.7843 10.6411L19.6475 9.18072C19.8112 9.04224 19.8616 8.80304 19.7483 8.6142L17.9858 5.56761C17.8725 5.37877 17.6459 5.30324 17.4444 5.37877L15.2539 6.26002C14.8007 5.90752 14.3097 5.61797 13.7684 5.39136L13.441 3.06235C13.4033 2.86093 13.2144 2.69727 13.0004 2.69727H9.47544C9.26142 2.69727 9.07258 2.86093 9.03482 3.07494L8.7075 5.40395C8.17875 5.63056 7.67518 5.92011 7.22197 6.27261L5.03144 5.39136C4.83001 5.31583 4.60341 5.39136 4.4901 5.5802L2.72761 8.62679C2.61431 8.81563 2.66466 9.05483 2.82832 9.19331L4.69153 10.6537C4.65376 10.9306 4.62858 11.2202 4.62858 11.5097C4.62858 11.7993 4.65376 12.0888 4.69153 12.3784L2.82832 13.8387C2.66466 13.9772 2.61431 14.2164 2.72761 14.4053L4.4901 17.4518C4.60341 17.6407 4.83001 17.7162 5.03144 17.6407L7.22197 16.7594C7.67518 17.1119 8.16616 17.4015 8.7075 17.6281L9.03482 19.9571C9.07258 20.1585 9.26142 20.3222 9.47544 20.3222H13.0004C13.2144 20.3222 13.4033 20.1585 13.441 19.9445L13.7684 17.6155C14.2971 17.3889 14.8007 17.0993 15.2539 16.7468L17.4444 17.6281C17.6459 17.7036 17.8725 17.6281 17.9858 17.4393ZM11.2379 14.0276C9.85312 14.0276 8.72009 12.8945 8.72009 11.5097C8.72009 10.1249 9.85312 8.99188 11.2379 8.99188C12.6227 8.99188 13.7558 10.1249 13.7558 11.5097C13.7558 12.8945 12.6227 14.0276 11.2379 14.0276Z" stroke="#333333" stroke-width="1.5"/>
<path d="M29.2245 24.9213L27.9445 23.9347C27.9712 23.748 27.9979 23.548 27.9979 23.348C27.9979 23.148 27.9845 22.948 27.9445 22.7613L29.2112 21.7747C29.3179 21.6813 29.3579 21.5213 29.2779 21.388L28.0779 19.3213C28.0112 19.188 27.8512 19.148 27.7045 19.188L26.2245 19.788C25.9179 19.548 25.5845 19.348 25.2112 19.2013L24.9845 17.628C24.9712 17.468 24.8379 17.3613 24.7045 17.3613H22.3179C22.1712 17.3613 22.0379 17.468 22.0245 17.6147L21.7979 19.188C21.4379 19.348 21.0912 19.5347 20.7845 19.7747L19.3045 19.1747C19.1712 19.1213 19.0112 19.1747 18.9312 19.308L17.7312 21.3747C17.6645 21.508 17.6779 21.668 17.7979 21.7613L19.0645 22.748C19.0379 22.9347 19.0245 23.1347 19.0245 23.3347C19.0245 23.5347 19.0379 23.7347 19.0645 23.9213L17.7979 24.908C17.6912 25.0013 17.6512 25.1613 17.7312 25.2947L18.9312 27.3613C18.9979 27.4947 19.1579 27.5347 19.3045 27.4947L20.7845 26.8947C21.0912 27.1347 21.4245 27.3347 21.7979 27.4813L22.0245 29.0547C22.0512 29.2013 22.1712 29.308 22.3179 29.308H24.7045C24.8512 29.308 24.9845 29.2013 24.9979 29.0547L25.2245 27.4813C25.5845 27.3213 25.9312 27.1347 26.2245 26.8947L27.7179 27.4947C27.8512 27.548 28.0112 27.4947 28.0912 27.3613L29.2912 25.2947C29.3712 25.1747 29.3312 25.0147 29.2245 24.9213ZM23.5045 25.1347C22.5179 25.1347 21.7045 24.3347 21.7045 23.3347C21.7045 22.3347 22.5045 21.5347 23.5045 21.5347C24.5045 21.5347 25.3045 22.3347 25.3045 23.3347C25.3045 24.3347 24.4912 25.1347 23.5045 25.1347Z" fill="#333333"/>
</g>
<defs>
<clipPath id="clip0_141_860">
<rect width="32" height="32" fill="white"/>
</clipPath>
</defs>
</svg>
